<svg width="57" height="36" viewBox="0 0 57 36" fill="none" xmlns="http://www.w3.org/2000/svg">
<path d="M8.39425 15.2289H9.83464C10.7667 15.2289 11.6745 15.1443 12.5581 14.975C13.4417 14.8057 14.2284 14.5034 14.9063 14.0922C15.5841 13.669 16.1409 13.1006 16.5524 12.3871C16.9761 11.6737 17.1818 10.7788 17.1818 9.72674C17.1818 8.89235 17.0245 8.13051 16.7219 7.46541C16.4072 6.80031 15.9835 6.23195 15.4389 5.76033C14.8942 5.28872 14.2769 4.92594 13.5748 4.6599C12.8728 4.39386 12.1344 4.26084 11.3598 4.26084C9.96779 4.26084 8.78158 4.61152 7.80115 5.325C6.82072 6.03847 6.08236 7.03007 5.58609 8.2998L1.4949 6.86077C2.30588 4.87756 3.60102 3.3176 5.38032 2.19298C7.15963 1.05627 9.21733 0.5 11.5413 0.5C12.9091 0.5 14.2042 0.693484 15.4267 1.08045C16.6493 1.46742 17.7265 2.03578 18.6464 2.78552C19.5664 3.53527 20.2926 4.46641 20.8373 5.57894C21.3699 6.69147 21.6483 7.98539 21.6483 9.44861C21.6483 10.3798 21.503 11.2504 21.2004 12.0606C20.9099 12.8709 20.4984 13.5964 19.99 14.2494C19.4816 14.9024 18.8643 15.4587 18.1502 15.9303C17.436 16.4019 16.6614 16.7405 15.8262 16.9582V17.0549C16.7824 17.2363 17.6781 17.5628 18.5012 18.0344C19.3243 18.494 20.0263 19.0744 20.6194 19.7758C21.2125 20.4772 21.6725 21.2753 22.0114 22.1702C22.3503 23.065 22.5198 24.0445 22.5198 25.0966C22.5198 26.7412 22.2172 28.1802 21.5999 29.4379C20.9825 30.6955 20.1716 31.7355 19.1548 32.5699C18.1381 33.4043 16.964 34.0331 15.6325 34.4685C14.3011 34.9038 12.9333 35.1215 11.5413 35.1215C8.93894 35.1215 6.63915 34.5289 4.65408 33.3559C2.669 32.1829 1.22861 30.3448 0.320801 27.8658L4.50883 26.4752C5.0051 27.9021 5.85239 29.063 7.05069 29.9579C8.249 30.8527 9.7136 31.3122 11.4445 31.3122C12.2797 31.3122 13.0907 31.1792 13.8895 30.9132C14.6763 30.6471 15.3904 30.2602 16.0077 29.7281C16.6251 29.196 17.1213 28.5551 17.4966 27.7812C17.8718 27.0072 18.0533 26.0882 18.0533 25.0361C18.0533 23.8873 17.7992 22.932 17.3029 22.1581C16.8066 21.3841 16.1651 20.7553 15.3662 20.2716C14.5795 19.7879 13.6838 19.4493 12.6912 19.2437C11.6987 19.0381 10.7182 18.9414 9.76202 18.9414H8.37004V15.2652L8.39425 15.2289Z" fill="url(#paint0_linear_1_204)"/>
<path d="M40.0174 1.85438C38.6012 0.947432 36.9309 0.5 34.97 0.5C33.0212 0.5 31.3266 0.947432 29.8984 1.85438C28.4701 2.76133 27.3081 3.9948 26.3882 5.55476C25.4804 7.12681 24.8026 8.96491 24.3668 11.069C23.9311 13.1732 23.7132 15.3861 23.7132 17.8047C23.7132 20.2232 23.9311 22.4725 24.3668 24.5645C24.8026 26.6565 25.4683 28.4946 26.3882 30.0546C27.296 31.6267 28.4701 32.848 29.8984 33.755C31.3266 34.6619 33.0212 35.1094 34.97 35.1094C36.9188 35.1094 38.6012 34.6498 40.0174 33.755C41.4215 32.848 42.5835 31.6146 43.5034 30.0546C44.4112 28.4825 45.089 26.6565 45.5248 24.5645C45.9605 22.4725 46.1784 20.1869 46.1784 17.8047C46.1784 16.8976 46.1468 16.0098 46.0836 15.1419H41.4737C41.5429 16.0614 41.5789 16.945 41.5789 17.7926C41.5789 19.1833 41.482 20.6707 41.3005 22.2548C41.1068 23.8269 40.7679 25.2901 40.2716 26.6203C39.7754 27.9505 39.0975 29.063 38.2502 29.9458C37.4029 30.8285 36.3378 31.276 34.97 31.276C33.6023 31.276 32.4886 30.8285 31.6171 29.9458C30.7456 29.063 30.0799 27.9505 29.5957 26.6203C29.1116 25.2901 28.7727 23.839 28.5911 22.2548C28.4096 20.6707 28.3127 19.1833 28.3127 17.7926C28.3127 16.4019 28.4096 14.9145 28.5911 13.3304C28.7848 11.7583 29.1116 10.2951 29.5957 8.94072C30.0678 7.58634 30.7456 6.47381 31.6171 5.59103C32.4886 4.70827 33.6023 4.26083 34.97 4.26083C35.0087 4.26083 35.0471 4.26121 35.0854 4.26197H42.6414C41.8939 3.28998 41.0193 2.48745 40.0174 1.85438Z" fill="url(#paint1_linear_1_204)"/>
<path d="M35.2311 7.49251L35.202 8.61839C35.1874 9.76605 35.122 10.5069 34.853 11.5093C34.504 12.8894 33.7406 13.7466 32.1629 13.8119C31.9593 13.8119 31.7775 13.7974 31.6249 13.7466V12.2648C31.7339 12.2938 31.8648 12.3156 31.9739 12.3156C33.1008 12.3156 33.5007 11.2333 33.5516 8.51669L33.6025 5.9744H39.906V13.7756H38.1902V7.47799H35.2456L35.2311 7.49251Z" fill="url(#paint2_linear_1_204)"/>
<path d="M42.2616 6.95501C43.0105 6.17779 43.9629 5.77829 45.1553 5.77829C45.9478 5.77829 46.6312 5.98893 47.2056 6.41749C48.3689 7.24555 48.8633 8.53123 48.8633 9.94765V10.3907H42.8796C43.0832 11.7127 44.2319 12.4899 45.8242 12.4899C46.733 12.4899 47.5546 12.2502 48.3398 11.7926V13.2381C47.6273 13.7466 46.6676 14.0008 45.4607 14.0008C44.2538 14.0008 43.2359 13.6231 42.3925 12.8531C41.5637 12.0904 41.1492 11.1026 41.1492 9.88227C41.1492 8.72008 41.5128 7.73948 42.2616 6.95501ZM47.1329 9.08327C47.1184 8.60386 46.9439 8.17531 46.5731 7.79759C46.2095 7.41262 45.7151 7.22376 45.0753 7.22376C43.8175 7.22376 43.0105 8.06635 42.8942 9.08327H47.1329Z" fill="url(#paint3_linear_1_204)"/>
<path d="M51.757 13.7901V7.49252H49.1178V5.98168H56.1048V7.49252H53.4801V13.7901H51.757Z" fill="url(#paint4_linear_1_204)"/>
<defs>
<linearGradient id="paint0_linear_1_204" x1="47.3125" y1="23.1342" x2="47.3125" y2="34.0479" gradientUnits="userSpaceOnUse">
<stop stop-color="#8A8A8A" stop-opacity="0.53"/>
<stop offset="1" stop-color="#8E8E8E" stop-opacity="0.12"/>
</linearGradient>
<linearGradient id="paint1_linear_1_204" x1="47.3125" y1="23.1342" x2="47.3125" y2="34.0479" gradientUnits="userSpaceOnUse">
<stop stop-color="#8A8A8A" stop-opacity="0.53"/>
<stop offset="1" stop-color="#8E8E8E" stop-opacity="0.12"/>
</linearGradient>
<linearGradient id="paint2_linear_1_204" x1="47.3125" y1="23.1342" x2="47.3125" y2="34.0479" gradientUnits="userSpaceOnUse">
<stop stop-color="#8A8A8A" stop-opacity="0.53"/>
<stop offset="1" stop-color="#8E8E8E" stop-opacity="0.12"/>
</linearGradient>
<linearGradient id="paint3_linear_1_204" x1="47.3125" y1="23.1342" x2="47.3125" y2="34.0479" gradientUnits="userSpaceOnUse">
<stop stop-color="#8A8A8A" stop-opacity="0.53"/>
<stop offset="1" stop-color="#8E8E8E" stop-opacity="0.12"/>
</linearGradient>
<linearGradient id="paint4_linear_1_204" x1="47.3125" y1="23.1342" x2="47.3125" y2="34.0479" gradientUnits="userSpaceOnUse">
<stop stop-color="#8A8A8A" stop-opacity="0.53"/>
<stop offset="1" stop-color="#8E8E8E" stop-opacity="0.12"/>
</linearGradient>
</defs>
</svg>
