<svg xmlns="http://www.w3.org/2000/svg" xml:space="preserve" style="enable-background:new 0 0 80 24" viewBox="0 0 80 24"><path d="M0 12C0 5.4 5.3 0 12 0s11.9 5.4 11.9 12-5.4 12-12 12S0 18.6 0 12z"/><path d="M11.6 0c0 4.9-.4 7.6-2.2 9.4-1.8 1.8-4.6 2.2-9.4 2.2v.8c4.8 0 7.6.4 9.4 2.2 1.8 1.8 2.1 4.5 2.2 9.4h.7c0-4.9.4-7.6 2.2-9.4 1.8-1.8 4.6-2.2 9.4-2.2v-.8c-4.8 0-7.6-.4-9.4-2.2C12.7 7.6 12.4 5 12.3 0h-.7z" style="fill-rule:evenodd;clip-rule:evenodd;fill:#fff"/><path d="M32.8 23.8V20h9.4v3.8H45v-6.2h-1.6V2.1H32.7l-.3 9c0 2.8-.4 5.2-1.2 6.5H30v6.2h2.8zm2.3-12.4.2-6.9h5v13.1h-6.2c.5-1.2.9-3.3 1-6.2zM50.5 17.9c-1.5 0-3.1-.6-4-1.2v2.5c.7.5 2.2 1 4.4 1 3.3 0 5-1.4 5-4 0-1.5-1-2.6-2.7-3 1.6-.4 2.3-1.6 2.3-3 0-2.2-1.7-3.4-4.5-3.4-2 0-3.3.6-4 1v2.6c.8-.6 1.9-1.2 3.6-1.2 1.1 0 1.8.5 1.8 1.5s-.6 1.6-1.8 1.6h-2v2.3h2c1.5 0 2.2.4 2.2 1.6 0 1-.8 1.7-2.3 1.7zM67.5 19.1v-2.5a8 8 0 0 1-4 1.3c-2.3 0-3.1-1.1-3.2-3.3h7.4V13c0-4.5-2-6.2-5-6.2-3.8 0-5.6 2.8-5.6 6.8 0 4.5 2.2 6.7 6.1 6.7 2 0 3.4-.5 4.3-1.2zm-5-9.9c1.6 0 2 1.3 2 3v.2h-4.2c0-2 .8-3.2 2.3-3.2zM77 7v5.2h-4.2V7h-3v13h3v-5.5H77V20H80V7h-3z"/></svg>