<svg xmlns="http://www.w3.org/2000/svg" viewBox="0 0 292 60"><linearGradient id="a" gradientUnits="userSpaceOnUse" x1="146" y1="62" x2="146" y2="2" gradientTransform="matrix(1 0 0 -1 0 62)"><stop offset="0" stop-color="#fff"/><stop offset="1" stop-color="#d7d7d7"/></linearGradient><path d="M171.6 14.9L148.9 60h-13.2l6.7-12.6-10-32.5h12.5l5.6 19.5 8.4-19.5h12.7zm17.3 35.9l4.1-27h-6.7c-1.9 8.1-2.1 9.1-2.4 10-1.9 8.2-4.5 16.8-18.3 18l-1.8-9.5c3.9-.8 5.7-1.7 7.3-4.2 1-1.7 2.1-4.5 4.6-15.1l1.9-8.1h28.6l-5.5 35.9h-11.8zm54.7 0l8.7-35.9h12.8l5.2 17.1 9.4-17.1H292v35.9h-11.6l.2-18.9-10.5 18.9h-5.3L258.9 32l-4.1 18.8h-11.2zM6.9 3.1C12.5.7 17.8 0 23.6 0 30.9 0 39.8 3.4 40 12.9c.1 5.3-2.1 9.5-7.9 11.8 4.6 1.6 6.6 5.9 6.6 10.3 0 12-11.1 16.8-21.2 16.8-5.5 0-12.6-1.3-17.5-4.1l1.9-10.8c4.6 2.6 9.4 4.2 14.9 4.2 4.1 0 8.4-1.2 8.4-5.8 0-4.1-3.5-4.8-7.3-4.8H10l1.4-10.3h7.1c4.2 0 8.6-.7 8.5-5.5-.2-3.9-5.1-4.2-7.4-4.2-5.5.1-9.5 1.3-14.7 4.3l2-11.7zm235.3 32.4H220c-.2 6.7 4.7 7.5 7.4 7.5 4.7 0 8.9-1 13.1-3.3l-1.4 9.4c-4.6 2.3-9.2 3-14.2 3-15.4 0-17.1-11-17.1-16.6.1-12 6.8-21.7 19.8-21.7 13.4-.1 16.2 11.3 14.6 21.7zm-15.4-13.9c-4.6 0-5.9 4-6.5 7.9H231c.4-3.2.4-7.9-4.2-7.9zm-160 1.7c-.5-.2-1.2-.3-1.8-.3-6.9 0-11 6.5-11 13.5-.1 3.6 1.5 5.9 4.2 5.9 1.9 0 3.8-.3 5.8-2.6l2.8-16.5zm13-8.4l-5.5 35.9H62.9l.6-4h-.3c-3.3 4.2-7.1 5-9.9 5-7.3 0-11.5-4.6-11.5-13.8 0-15.8 10.9-24.1 24.9-24.1 5.4 0 9.6.5 13.1 1zm32.4-4.8l-.8 4.8c2.4-.9 3.5-.9 6.4-.9 9.1 0 14 6.1 14 15.3 0 15.3-9.8 22.3-21.2 22.3-1.9 0-4-.2-4.7-.4l-1.4 9h-12l5-31.6h-.3c-1.9 1.4-4.6 5.1-6.1 7.3-.5.8-1 1.1-1.6.8l-.2-.1c-.6-.3-.8-1-.3-2.1 1.8-4.3 4.7-10.1 9.5-13.8l1.7-10.4 12-.2zm-2.1 13.7l-2.9 18c.9.3 2 .3 2.4.3 6.5 0 9.8-5.9 9.7-12.1-.1-4-2-6.9-5.9-6.9-1.7-.1-2.7.3-3.3.7z" fill="url(#a)"/></svg>