<svg width="36" height="36" viewBox="0 0 36 36" fill="none" xmlns="http://www.w3.org/2000/svg">
<path d="M18 0C8.07496 0 0 8.07496 0 18C0 27.925 8.07496 36 18 36C27.925 36 36 27.925 36 18C36 8.07496 27.925 0 18 0ZM18 6.26087C21.0256 6.26087 23.4783 8.71356 23.4783 11.7391C23.4783 14.7647 21.0256 17.2174 18 17.2174C14.9744 17.2174 12.5217 14.7647 12.5217 11.7391C12.5217 8.71356 14.9744 6.26087 18 6.26087ZM18 9.3913C17.3773 9.3913 16.7801 9.63866 16.3398 10.079C15.8995 10.5193 15.6522 11.1164 15.6522 11.7391C15.6522 12.3618 15.8995 12.959 16.3398 13.3993C16.7801 13.8396 17.3773 14.087 18 14.087C18.6227 14.087 19.2199 13.8396 19.6602 13.3993C20.1005 12.959 20.3478 12.3618 20.3478 11.7391C20.3478 11.1164 20.1005 10.5193 19.6602 10.079C19.2199 9.63866 18.6227 9.3913 18 9.3913ZM13.2218 19.177C13.4833 19.1698 13.754 19.2277 14.0121 19.3635C15.2032 19.9911 16.5592 20.3478 18 20.3478C19.4408 20.3478 20.7968 19.9911 21.9879 19.3635C23.0202 18.8203 24.2609 19.518 24.2609 20.6841C24.2609 21.311 23.9124 21.8887 23.356 22.176C22.7017 22.5133 22.004 22.7748 21.2863 22.9861L23.8023 25.502C24.4135 26.1133 24.4135 27.1041 23.8023 27.7154C23.4971 28.0214 23.0963 28.1739 22.6957 28.1739C22.295 28.1739 21.8942 28.0214 21.589 27.7154L18 24.1264L14.411 27.7154C13.8006 28.3266 12.8081 28.3266 12.1977 27.7154C11.5865 27.1041 11.5865 26.1133 12.1977 25.502L14.7137 22.9861C13.996 22.7748 13.2983 22.5148 12.644 22.1775C12.0876 21.8895 11.7391 21.311 11.7391 20.6841C11.7391 19.8095 12.4374 19.1986 13.2218 19.177Z" fill="#C4C4C4"/>
</svg>
