<svg width="36" height="36" viewBox="0 0 36 36" fill="none" xmlns="http://www.w3.org/2000/svg">
<path fill-rule="evenodd" clip-rule="evenodd" d="M0 18C0 13.2261 1.89642 8.64773 5.27208 5.27208C8.64773 1.89642 13.2261 0 18 0C22.7739 0 27.3523 1.89642 30.7279 5.27208C34.1036 8.64773 36 13.2261 36 18C36 22.7739 34.1036 27.3523 30.7279 30.7279C27.3523 34.1036 22.7739 36 18 36C13.2261 36 8.64773 34.1036 5.27208 30.7279C1.89642 27.3523 0 22.7739 0 18ZM27.5625 7.425H27.45C23.7676 8.9067 20.0925 10.4067 16.425 11.925L14.9625 12.6L3.0375 17.55L9.5625 19.8L23.4 11.3625C23.4 11.3625 24.075 11.025 24.075 11.475C24.075 11.475 24.1875 11.5875 23.7375 12.0375L12.825 22.1625L11.925 27.45L15.975 23.85L22.725 28.9125C23.0625 29.025 23.175 28.9125 23.175 28.9125L23.2875 28.8L27.5625 7.5375V7.425Z" fill="#BDBDBD"/>
</svg>
