<svg width="30" height="30" viewBox="0 0 30 30" fill="none" xmlns="http://www.w3.org/2000/svg">
<path d="M14.6388 0.429932C6.61335 0.429932 0.0767212 6.95861 0.0767212 14.9921C0.0767212 23.0255 6.60539 29.5542 14.6388 29.5542C22.6723 29.5542 29.201 23.0255 29.201 14.9921C29.201 6.95861 22.6643 0.429932 14.6388 0.429932ZM14.6388 5.49364C17.0831 5.49364 19.0736 7.47612 19.0736 9.92836C19.0736 12.3806 17.0911 14.3631 14.6388 14.3631C12.1946 14.3631 10.2041 12.3806 10.2041 9.92836C10.2041 7.47612 12.1946 5.49364 14.6388 5.49364ZM14.6388 8.02549C13.5879 8.02549 12.736 8.8774 12.736 9.92836C12.736 10.9793 13.5879 11.8312 14.6388 11.8312C15.6898 11.8312 16.5417 10.9793 16.5417 9.92836C16.5417 8.8774 15.6898 8.02549 14.6388 8.02549ZM10.7774 15.9395C10.9923 15.9316 11.2073 15.9793 11.4143 16.0908C12.3777 16.6003 13.4764 16.887 14.6388 16.887C15.8013 16.887 16.9 16.6003 17.8634 16.0908C18.6994 15.6529 19.7026 16.2182 19.7026 17.1577C19.7026 17.6672 19.4239 18.129 18.9701 18.3679C18.4446 18.6386 17.8793 18.8535 17.2981 19.0207L19.3363 21.059C19.8299 21.5526 19.8299 22.3567 19.3363 22.8504C19.0895 23.0972 18.7631 23.2246 18.4446 23.2246C18.1182 23.2246 17.7997 23.1051 17.5529 22.8504L14.6468 19.9443L11.7408 22.8504C11.2471 23.344 10.443 23.344 9.94935 22.8504C9.45572 22.3567 9.45572 21.5526 9.94935 21.059L11.9876 19.0207C11.4064 18.8535 10.8411 18.6386 10.3156 18.3679C9.86177 18.137 9.5831 17.6672 9.5831 17.1577C9.57514 16.4491 10.1404 15.9554 10.7774 15.9395Z" fill="#ED812B"/>
</svg>
