<svg width="30" height="30" viewBox="0 0 30 30" fill="none" xmlns="http://www.w3.org/2000/svg">
<path fill-rule="evenodd" clip-rule="evenodd" d="M0.140503 14.9921C0.140503 6.95861 6.67713 0.429932 14.7026 0.429932C22.7281 0.429932 29.2648 6.95861 29.2648 14.9921C29.2648 23.0255 22.7361 29.5542 14.7026 29.5542C6.66917 29.5542 0.140503 23.0255 0.140503 14.9921ZM22.4328 6.40692C22.4327 6.39684 22.4325 6.38578 22.4335 6.3694C22.4108 6.3694 22.4041 6.3694 22.3983 6.37157C22.3903 6.3745 22.3838 6.38142 22.3406 6.39774C22.2619 6.42961 20.8708 7.00333 18.9898 7.78601C17.4138 8.44471 15.4413 9.26749 13.4149 10.1127C13.0226 10.2763 12.6284 10.4408 12.2345 10.6051C7.38537 12.6273 2.61487 14.6176 2.61487 14.6176L2.58626 14.6282L2.55765 14.6424C2.55765 14.6424 2.53262 14.653 2.52904 14.653C2.53083 14.653 2.53351 14.6539 2.53619 14.6548C2.53888 14.6557 2.54156 14.6566 2.54335 14.6566V14.6601L7.88602 16.4415L7.8896 16.4592L19.0363 9.62052C19.0363 9.62052 19.612 9.33011 19.587 9.74093C19.587 9.74093 19.7086 9.81176 19.3438 10.1482C18.979 10.4846 10.5037 18.3079 10.5037 18.3079L9.81711 22.6498L13.0857 19.6997L18.4963 23.8078C18.7931 23.9247 18.8503 23.8893 18.9218 23.8326C18.9827 23.7851 19.0091 23.7375 19.0242 23.7103C19.026 23.7071 19.0276 23.7042 19.0291 23.7016L22.4157 6.5394V6.52877C22.4335 6.45072 22.4332 6.43174 22.4328 6.40692Z" fill="#0088CC"/>
</svg>
