<svg width="30" height="30" viewBox="0 0 30 30" fill="none" xmlns="http://www.w3.org/2000/svg">
<path d="M18.2484 20.2875C18.7533 20.0804 19.1829 19.761 19.4695 19.2993C19.8623 18.6675 19.8675 18.229 19.2241 17.7621C19.0578 17.6423 18.8928 17.521 18.7279 17.3996C18.472 17.2114 18.2162 17.0232 17.9556 16.8411C17.3033 16.3845 16.5976 16.3051 16.1102 17.1052C16.0909 17.1364 16.0636 17.1639 16.0366 17.1909C16.0292 17.1983 16.0218 17.2057 16.0147 17.2131C15.7657 17.4729 15.4589 17.5385 15.1336 17.4065C13.8984 16.9059 12.9437 16.0989 12.3687 14.8965C12.0312 14.1896 12.1241 13.8349 12.7579 13.3654C12.8201 13.3196 12.8806 13.2713 12.9376 13.2195C13.2155 12.9701 13.2891 12.6732 13.1261 12.3374C12.7535 11.5727 12.2582 10.8908 11.6323 10.3022C11.4061 10.089 11.1361 9.98284 10.831 10.0493C10.0333 10.2219 9.2434 10.7924 9.2206 11.8066C9.22833 11.8525 9.23307 11.8996 9.23781 11.9466C9.24758 12.0436 9.25735 12.1406 9.29337 12.2278C9.35951 12.3872 9.4235 12.5478 9.48752 12.7085C9.67549 13.1803 9.86363 13.6526 10.1069 14.0956C11.6901 16.9775 14.0843 18.9834 17.1385 20.2556C17.5023 20.4075 17.8793 20.4394 18.2484 20.2875Z" fill="#B5B5B7"/>
<path d="M15.3151 11.0557C15.4764 11.0289 15.6412 11.016 15.8051 11.016C17.4226 11.016 18.7384 12.3115 18.7384 13.9048C18.7384 14.0671 18.7253 14.2294 18.6981 14.3864C18.6525 14.6549 18.8366 14.9086 19.1092 14.9544C19.1373 14.9595 19.1654 14.9613 19.1925 14.9613C19.4327 14.9613 19.6449 14.7904 19.6861 14.5496C19.722 14.3381 19.7404 14.1206 19.7404 13.904C19.7404 11.7678 17.9749 10.0295 15.8051 10.0295C15.586 10.0295 15.3651 10.0476 15.1503 10.0821C14.8768 10.127 14.6927 10.3816 14.7383 10.65C14.7838 10.9193 15.0416 11.1014 15.3151 11.0557Z" fill="#B5B5B7"/>
<path d="M17.4866 14.7144C17.7627 14.7144 17.9871 14.4935 17.9871 14.2216C17.9871 12.8622 16.8633 11.7557 15.4834 11.7565C15.2073 11.7565 14.9828 11.9775 14.9828 12.2494C14.9828 12.5213 15.2073 12.7422 15.4834 12.7422C16.3118 12.7422 16.986 13.4059 16.986 14.2216C16.986 14.4935 17.2104 14.7144 17.4866 14.7144Z" fill="#B5B5B7"/>
<path d="M20.8704 15.2073C21.1001 15.2073 21.3061 15.0528 21.3587 14.8232C21.4482 14.4374 21.4937 14.0386 21.4937 13.6381C21.4937 10.6966 19.0628 8.30323 16.0752 8.30323C15.6684 8.30323 15.2634 8.34725 14.8706 8.43615C14.6006 8.4957 14.4314 8.75981 14.4928 9.02565C14.5533 9.29149 14.8233 9.45893 15.0915 9.39765C15.4115 9.32602 15.7411 9.28976 16.0734 9.28976C18.5096 9.28976 20.4909 11.2413 20.4909 13.639C20.4909 13.9652 20.454 14.2906 20.3813 14.6057C20.3199 14.8706 20.4891 15.1348 20.7591 15.1952C20.7959 15.2029 20.8336 15.2073 20.8704 15.2073Z" fill="#B5B5B7"/>
<path fill-rule="evenodd" clip-rule="evenodd" d="M15 30C23.2843 30 30 23.2843 30 15C30 6.71573 23.2843 0 15 0C6.71573 0 0 6.71573 0 15C0 23.2843 6.71573 30 15 30ZM22.3327 7.34431C23.3733 8.04947 24.0825 9.04637 24.441 10.3056C24.9679 12.1605 25.1205 14.2112 24.9065 16.5744C24.7847 17.9183 24.4586 19.1042 23.9107 20.1986C23.3856 21.2473 22.5107 22.0293 21.3123 22.5221C20.0026 23.0598 18.6122 23.1738 17.412 23.2385C16.4214 23.2912 15.4247 23.3283 14.449 23.3473C14.3954 23.3483 14.3642 23.349 14.337 23.3596C14.2991 23.3744 14.2688 23.4084 14.1965 23.4897L11.3412 26.224C11.2045 26.3552 11.0212 26.4286 10.8301 26.4286C10.4251 26.4286 10.0973 26.1058 10.0973 25.707V22.6602C9.94559 22.5946 9.77202 22.5325 9.59143 22.4695C9.23025 22.3435 8.85855 22.2131 8.56662 22.0327C7.42347 21.325 6.65376 20.247 6.21369 18.7391C5.76133 17.1924 5.61844 15.5232 5.77624 13.6373C5.84461 12.8216 5.96209 11.9663 6.13742 11.0203C6.49772 9.0714 7.67769 7.63173 9.64403 6.74272C10.6478 6.28872 11.7471 6.00735 13.2076 5.83128C14.7646 5.64398 16.3995 5.68109 18.2045 5.94607C19.509 6.13768 21.0195 6.45358 22.3327 7.34431Z" fill="#B5B5B7"/>
</svg>
