<svg width="30" height="30" viewBox="0 0 30 30" fill="none" xmlns="http://www.w3.org/2000/svg">
<path d="M16.1227 12.0301C16.1227 11.8789 16.1147 10.6527 14.8806 10.6527H13.543V13.2324C13.543 13.2324 14.7293 13.2164 14.9284 13.2164C16.0351 13.2244 16.1227 12.261 16.1227 12.0301Z" fill="#B5B5B7"/>
<path d="M15.5414 15.8279C15.1911 15.8279 13.543 15.812 13.543 15.812V19.6814C13.543 19.6814 15.1513 19.6575 15.4777 19.6575C17.1497 19.6575 17.4125 18.2244 17.4125 17.7069C17.4125 16.9187 16.9905 15.8279 15.5414 15.8279Z" fill="#B5B5B7"/>
<path d="M14.8328 0.334229C6.65606 0.334229 0 6.99029 0 15.1671C0 23.3438 6.65606 29.9999 14.8328 29.9999C23.0096 29.9999 29.6657 23.3438 29.6657 15.1671C29.6657 6.99029 23.0096 0.334229 14.8328 0.334229ZM15.3504 22.261H9.67359V8.0731H14.6895C16.2421 8.0731 19.9762 8.12087 19.9762 11.3215C19.9762 13.2323 18.6704 14.0683 18.0812 14.3151V14.3948C19.6179 14.3948 21.2819 16.003 21.2819 17.7706C21.2819 19.6814 20.4777 22.261 15.3504 22.261Z" fill="#B5B5B7"/>
</svg>
