<svg width="30" height="30" viewBox="0 0 30 30" fill="none" xmlns="http://www.w3.org/2000/svg">
<path fill-rule="evenodd" clip-rule="evenodd" d="M15.0596 0C6.82508 0 0.122931 6.67078 0.119147 14.8712C0.118414 17.3774 0.75379 19.8472 1.95881 22.0333L0.0264953 29.0592C-0.0438172 29.3159 0.0279601 29.5898 0.216315 29.7789C0.358343 29.9219 0.550482 30 0.747809 30C0.811346 30 0.874884 29.9918 0.937689 29.9755L8.17878 28.0848C10.2927 29.1775 12.6624 29.7544 15.0536 29.7551C23.2941 29.7551 29.9963 23.0836 30 14.8832C30.0015 10.9091 28.4489 7.17249 25.6286 4.36182C22.8068 1.55042 19.0535 0.00146484 15.0596 0ZM10.7136 8.35522C10.967 8.36572 11.2465 8.37756 11.5119 8.96558C11.6972 9.37573 12.0115 10.1477 12.257 10.7506C12.4294 11.174 12.5679 11.514 12.604 11.5872C12.6929 11.7635 12.752 11.9697 12.6339 12.2057C12.5158 12.4409 12.4567 12.5884 12.2796 12.7946C12.1017 13.0007 11.9066 13.2545 11.7474 13.4131C11.5695 13.5895 11.3848 13.7808 11.5919 14.1335C11.799 14.4872 12.5106 15.6431 13.5645 16.5787C14.6967 17.5836 15.6802 18.0088 16.1798 18.2247C16.2783 18.2673 16.3579 18.3018 16.4163 18.3309C16.7706 18.5081 16.9777 18.4783 17.1847 18.2423C17.3918 18.0072 18.0713 17.2114 18.3075 16.8586C18.5444 16.505 18.7806 16.5638 19.1058 16.6815C19.431 16.7991 21.1749 17.6528 21.5292 17.83C21.6 17.8654 21.666 17.8972 21.7271 17.9266C21.9721 18.0447 22.1375 18.1244 22.2087 18.2423C22.2969 18.3898 22.2969 19.0961 22.0017 19.9209C21.7064 20.7456 20.2585 21.5405 19.6082 21.5994C19.5457 21.605 19.4835 21.6123 19.4196 21.6198C18.8186 21.6901 18.06 21.7788 15.3526 20.7158C12.0214 19.4073 9.82477 16.1658 9.37098 15.496C9.33375 15.441 9.30823 15.4034 9.29481 15.3856C9.11762 15.1504 7.84687 13.4711 7.84687 11.7338C7.84687 10.1085 8.64905 9.25659 9.01874 8.86389C9.0442 8.83691 9.06757 8.81201 9.08851 8.78918C9.41364 8.43567 9.79786 8.34705 10.0341 8.34705H10.0841C10.3035 8.34705 10.5211 8.34692 10.7136 8.35522Z" fill="#B5B5B7"/>
</svg>
