<svg width="30" height="30" viewBox="0 0 30 30" fill="none" xmlns="http://www.w3.org/2000/svg">
<path d="M0.747803 29.255L2.76159 21.9343C1.51923 19.7921 0.865909 17.3611 0.866656 14.8713C0.870394 7.08172 7.23616 0.744385 15.0596 0.744385C18.8562 0.745873 22.4188 2.21744 25.0986 4.8874C27.7777 7.5581 29.2532 11.1071 29.2517 14.8824C29.2487 22.672 22.8815 29.0101 15.0596 29.0101C15.0588 29.0101 15.0596 29.0101 15.0596 29.0101H15.0536C12.6788 29.0093 10.3443 28.4161 8.27146 27.2899L0.747803 29.255Z" fill="white"/>
<path d="M0.747755 29.6271C0.649084 29.6271 0.553404 29.5884 0.48239 29.5169C0.388952 29.4224 0.352324 29.2847 0.387457 29.1574L2.36013 21.9849C1.13721 19.8219 0.492108 17.3655 0.493603 14.872C0.496593 6.87626 7.03055 0.372192 15.0595 0.372192C18.954 0.373681 22.6131 1.88395 25.3632 4.62462C28.1132 7.36604 29.6269 11.0089 29.6254 14.8824C29.6224 22.8774 23.0877 29.3822 15.0595 29.3822C12.6757 29.3815 10.3173 28.7957 8.22432 27.6873L0.842689 29.6145C0.811293 29.6234 0.779898 29.6271 0.747755 29.6271Z" fill="white"/>
<path d="M15.0596 0.744343C18.8562 0.745832 22.4188 2.2174 25.0986 4.88736C27.7777 7.55806 29.2532 11.1071 29.2517 14.8824C29.2488 22.6719 22.8815 29.01 15.0596 29.01H15.0536C12.6788 29.0093 10.3443 28.416 8.27147 27.2898L0.747814 29.2549L2.7616 21.9343C1.51924 19.7921 0.86592 17.3611 0.866668 14.8712C0.870405 7.08168 7.23617 0.744343 15.0596 0.744343ZM15.0596 0C6.82505 0 0.122899 6.6708 0.119161 14.8712C0.118414 17.3774 0.753794 19.8472 1.95878 22.0333L0.0264703 29.0592C-0.0437953 29.3159 0.0279653 29.5899 0.216337 29.7789C0.358363 29.9218 0.550473 30 0.747814 30C0.811352 30 0.874891 29.9918 0.937681 29.9754L8.17878 28.0848C10.2927 29.1775 12.6623 29.7544 15.0536 29.7551C23.2941 29.7551 29.9963 23.0836 30 14.8831C30.0015 10.9091 28.4489 7.17249 25.6286 4.36185C22.8067 1.55047 19.0535 0.00148869 15.0596 0Z" fill="#CFD8DC"/>
<path d="M23.4032 6.57407C21.1756 4.35444 18.2148 3.13148 15.0633 3.13074C8.55698 3.13074 3.26538 8.39771 3.26239 14.872C3.26164 17.0909 3.88506 19.251 5.06612 21.1215L5.34719 21.5659L4.15491 25.8987L8.61977 24.7331L9.05108 24.9876C10.8615 26.058 12.9381 26.6237 15.0551 26.6244H15.0595C21.5614 26.6244 26.853 21.3567 26.8552 14.8817C26.8559 11.7443 25.6308 8.7937 23.4032 6.57407Z" fill="#40C351"/>
<path fill-rule="evenodd" clip-rule="evenodd" d="M11.5119 8.96561C11.2465 8.37758 10.967 8.36567 10.7136 8.35525C10.5065 8.34632 10.2703 8.34706 10.0341 8.34706C9.79786 8.34706 9.41364 8.43564 9.08847 8.7892C8.76331 9.14276 7.84686 9.99653 7.84686 11.7338C7.84686 13.4711 9.11762 15.1504 9.29478 15.3856C9.47194 15.6208 11.7481 19.3001 15.3526 20.7158C18.3478 21.8919 18.9578 21.6581 19.6081 21.5993C20.2585 21.5405 21.7064 20.7456 22.0017 19.9209C22.2969 19.0961 22.2969 18.3897 22.2087 18.2424C22.1198 18.095 21.8835 18.0071 21.5292 17.83C21.1749 17.6528 19.431 16.7991 19.1058 16.6815C18.7806 16.5639 18.5444 16.5051 18.3075 16.8586C18.0713 17.2114 17.3918 18.0071 17.1847 18.2424C16.9777 18.4783 16.7706 18.5081 16.4163 18.3309C16.062 18.1538 14.9198 17.7816 13.5645 16.5788C12.5106 15.6431 11.7989 14.4871 11.5919 14.1336C11.3848 13.7808 11.5694 13.5895 11.7474 13.4131C11.9066 13.2545 12.1017 13.0007 12.2796 12.7945C12.4567 12.5883 12.5158 12.4409 12.6339 12.2057C12.752 11.9698 12.6929 11.7636 12.604 11.5872C12.5165 11.41 11.8273 9.6638 11.5119 8.96561Z" fill="white"/>
</svg>
