<svg width="194" height="41" viewBox="0 0 194 41" fill="none" xmlns="http://www.w3.org/2000/svg">
<path fill-rule="evenodd" clip-rule="evenodd" d="M4.7858 2.14281C8.66618 0.447752 12.3525 0 16.3946 0C21.4391 0 27.6477 2.30272 27.7447 8.79513C27.8094 12.4411 26.2896 15.2876 22.2475 16.8547C25.4165 17.9421 26.8069 20.9164 26.8069 23.9228C26.8069 32.0782 19.1432 35.3723 12.1262 35.3723C8.31049 35.3723 3.39533 34.5089 0 32.59L1.29346 25.17C4.46244 26.961 7.79309 28.0165 11.6411 28.0165C14.5191 28.0165 17.494 27.217 17.494 24.0186C17.494 21.1723 15.0365 20.7885 12.4496 20.7885H7.01701L8.01946 13.7204H12.9346C15.8449 13.7204 18.9169 13.2727 18.8522 9.94649C18.7228 7.29196 15.3275 7.0681 13.7106 7.0681C9.89498 7.13206 7.0817 7.93162 3.52468 10.0105L4.7858 2.14281ZM72.2654 6.8753L71.748 10.1055C73.3971 9.52983 74.1409 9.46587 76.2104 9.46587C82.516 9.46587 85.9114 13.6236 85.9114 19.8922C85.9114 30.3183 79.1207 35.1157 71.2305 35.1157C69.8724 35.1157 68.482 34.9877 67.9646 34.8278L66.9621 40.9684H58.6517L62.1117 19.3804H61.95C60.6565 20.3079 58.7163 22.8664 57.7462 24.3696C57.3906 24.8813 57.0349 25.1372 56.6468 24.9453L56.5175 24.8813C56.097 24.6575 56 24.1777 56.2911 23.4421C57.5199 20.4998 59.5571 16.566 62.8554 14.0074L64.0195 6.8753H72.2654ZM160.244 24.2414H144.851C144.722 28.8149 148.118 29.3265 149.993 29.3265C153.259 29.3265 156.201 28.623 159.08 27.0559L158.078 33.4843C154.908 35.0514 151.707 35.4991 148.247 35.4991C137.609 35.4991 136.379 27.9833 136.379 24.1455C136.444 15.9899 141.133 9.33766 150.09 9.33766C159.371 9.36964 161.343 17.1413 160.244 24.2414ZM54.613 10.2011L50.7974 34.7315H42.9072L43.3276 32.0131H43.1659C40.8699 34.9234 38.2507 35.4351 36.3105 35.4351C31.2337 35.4351 28.3557 32.3009 28.3557 26.0003C28.3557 15.2223 35.8902 9.4975 45.6234 9.4975C49.2128 9.4975 52.1555 9.84932 54.613 10.2011ZM124.003 34.6994L126.876 16.2777H122.252C120.893 21.8426 120.797 22.4822 120.602 23.1219C119.309 28.7508 117.498 34.5715 107.894 35.403L106.698 28.8787C109.382 28.3029 110.61 27.7273 111.742 25.9684C112.421 24.817 113.165 22.93 114.879 15.67L116.172 10.1691H136.027L132.211 34.6994H124.003ZM112.78 10.2011L96.9671 41H87.8482L92.4723 32.3648L85.5522 10.2011H94.2183L98.0665 23.5058L103.855 10.2011H112.78ZM160.467 34.7314L166.481 10.2011H175.374L178.995 21.9066L185.495 10.2011H194V34.7314H185.98L186.11 21.8107L178.866 34.7314H175.18L171.074 21.8747L168.195 34.7314H160.467ZM149.506 14.774C146.273 14.774 145.4 17.4924 145.012 20.147H152.45C152.741 17.9403 152.741 14.774 149.506 14.774ZM70.8089 16.277L68.804 28.5583C69.4507 28.7181 70.1945 28.7181 70.4855 28.7181C74.9802 28.7181 77.2761 24.6565 77.2115 20.4347C77.1467 17.7162 75.821 15.7333 73.1048 15.7333C71.973 15.7333 71.2939 15.9891 70.8089 16.277ZM45.5901 15.9252C45.2343 15.7973 44.717 15.7653 44.2967 15.7653C39.5108 15.7653 36.6974 20.2108 36.6974 24.9763C36.6329 27.4707 37.7646 29.0379 39.6078 29.0379C40.9659 29.0379 42.2271 28.8141 43.6499 27.247L45.5901 15.9252Z" fill="#CE0000"/>
</svg>
